<svg width="24" height="24" viewBox="0 0 24 24" fill="none" xmlns="http://www.w3.org/2000/svg">
  <path d="M12 2C6.477 2 2 6.477 2 12C2 13.89 2.525 15.66 3.438 17.168L2 22l4.988-1.312A9.96 9.96 0 0012 22c5.523 0 10-4.477 10-10S17.523 2 12 2z" stroke="#5B9BAA" stroke-width="1.5" stroke-linejoin="round"/>
  <path d="M8.5 9.5C8.5 9.5 8.5 11.5 10.5 13.5C12.5 15.5 14.5 15.5 14.5 15.5L15.5 14C15.5 14 14 13.5 13.5 13C13 12.5 12.5 11 12.5 11L11 11.5C11 11.5 10.5 10 9.5 9.5C9 9.25 8.5 9.5 8.5 9.5Z" fill="#5B9BAA"/>
</svg>
